Yorkshire, 1978. A mother, father and their three year old son are brutally stabbed to death while they sleep. There is no motive. They were a model family. The nation is outraged by the senseless killings. Incredibly, the British public are overwhelmingly in favour of bringing back the death penalty to see justice carried out. Even more incredibly the killer, who is caught red-handed trying to drag the father's body out of the house, manages to hide the three year old's body in a place where the investigators, the police and even their dog teams would never find it. For months all the nation can talk about is the "Kid Killer" but, and this is the most incredible fact of all, not because he cold-bloodedly stabbed to death a three year old, his mother and his father, but because these innocent victims were also his family. The "Kid Killer" was their twelve year old son William. Malvern, thirty years later... 





General
Complete name                    : H:\Movies\The.Point.of.Regret.[2011].DvdRip.XviD-Knã\The.Point.of.Regret.[2011].DvdRip.XviD-Knã.avi
Format                           : AVI
Format/Info                      : Audio Video Interleave
File size                        : 896 MiB
Duration                         : 1h 34mn
Overall bit rate                 : 1 330 Kbps
Writing application              : VirtualDubMod 1.5.4.1 (build 2178/release)
Writing library                  : VirtualDubMod build 2178/release

Video
ID                               : 0
Format                           : MPEG-4 Visual
Format profile                   : Advanced Simple@L5
Format settings, BVOP            : Yes
Format settings, QPel            : No
Format settings, GMC             : No warppoints
Format settings, Matrix          : Default (H.263)
Muxing mode                      : Packed bitstream
Codec ID                         : XVID
Codec ID/Hint                    : XviD
Duration                         : 1h 34mn
Bit rate                         : 1 131 Kbps
Width                            : 624 pixels
Height                           : 352 pixels
Display aspect ratio             : 16:9
Frame rate                       : 25.000 fps
Color space                      : YUV
Chroma subsampling               : 4:2:0
Bit depth                        : 8 bits
Scan type                        : Progressive
Bits/(Pixel*Frame)               : 0.206
Stream size                      : 762 MiB (85%)
Writing library                  : XviD 1.2.1 (UTC 2008-12-04)

Audio
ID                               : 1
Format                           : AC-3
Format/Info                      : Audio Coding 3
Mode extension                   : CM (complete main)
Codec ID                         : 2000
Duration                         : 1h 34mn
Bit rate mode                    : Constant
Bit rate                         : 192 Kbps
Channel(s)                       : 2 channels
Channel positions                : Front: L R
Sampling rate                    : 48.0 KHz
Bit depth                        : 16 bits
Stream size                      : 129 MiB (14%)
Alignment                        : Split accross interleaves
Interleave, duration             : 80 ms (2.00 video frames)
Interleave, preload duration     : 500 ms

